================================ THE CONDEMNED ====================================

Format                           : AVI
Format/Info                      : Audio Video Interleave
File size                        : 701 MiB
Duration                         : 1h 53mn
Overall bit rate                 : 863 Kbps
Writing application              : VirtualDubMod 1.5.10.1 (build 2366/release)
Writing library                  : VirtualDubMod build 2366/release

Video
ID                               : 0
Format                           : MPEG-4 Visual
Format profile                   : Advanced Simple@L5
Format settings, BVOP            : Yes
Format settings, QPel            : No
Format settings, GMC             : No warppoints
Format settings, Matrix          : Default (H.263)
Codec ID                         : DX50
Codec ID/Hint                    : DivX 5
Duration                         : 1h 53mn
Bit rate                         : 741 Kbps
Width                            : 616 pixels
Height                           : 336 pixels
Display aspect ratio             : 16:9
Frame rate                       : 23.976 fps
Color space                      : YUV
Chroma subsampling               : 4:2:0
Bit depth                        : 8 bits
Scan type                        : Progressive
Bits/(Pixel*Frame)               : 0.149
Stream size                      : 602 MiB (86%)
Writing library                  : XviD 1.0.3 (UTC 2004-12-20)

Audio
ID                               : 1
Format                           : MPEG Audio
Format version                   : Version 1
Format profile                   : Layer 3
Codec ID                         : 55
Codec ID/Hint                    : MP3
Duration                         : 1h 53mn
Bit rate mode                    : Constant
Bit rate                         : 112 Kbps
Channel(s)                       : 2 channels
Sampling rate                    : 48.0 KHz
Stream size                      : 91.0 MiB (13%)
Alignment                        : Aligned on interleaves
Interleave, duration             : 42 ms (1.00 video frame)
Interleave, preload duration     : 504 ms

=============================== CASTINGS =================================

 
  Steve Austin  ...  Conrad  
  Vinnie Jones  ...  McStarley  
  Robert Mammone  ...  Breckel  
  Tory Mussett  ...  Julie (as Victoria Mussett)  
  Manu Bennett  ...  Paco  
  Madeleine West  ...  Sarah Cavanaugh  
  Rick Hoffman  ...  'Goldy' Goldman  
  Christopher Baker  ...  Eddie  
 
ADDITIONAL 
    Synopsis: The story of Jack Conrad, who is awaiting the death penalty in a corrupt Central American prison. He is "purchased" by a wealthy television producer and taken to a desolate island where he must fight to the death against nine other condemned killers... The story of Jack Conrad, who is awaiting the death penalty in a corrupt Central American prison. He is "purchased" by a wealthy television producer and taken to a desolate island where he must fight to the death against nine other condemned killers from all corners of the world, with freedom going to the sole survivor. The producer films the illegal event, airing the killings live and uncensored onto the internet. More 

Rated: R –  for pervasive strong brutal violence, and for language 

Running Time: 1 hr. 53 min. 

In Theaters: Apr 27, 2007 Wide

On DVD: Sep 17, 2007

US Box Office:$7.3M
Distributor:Lionsgate Films

Directed By: Scott Wiper 

Written By: Scott Wiper, Andrew Hedden, Rob Hedden
 
==================================================================================
Synopsis: The story of Jack Conrad, who is awaiting the death penalty in a corrupt Central American prison. He is "purchased" by a wealthy television producer and taken to a desolate island where he must fight to the death against nine other condemned killers

========================= SCREEN SHOTS==========================================
        
                        http://bayimg.com/OaEAOaadl
 
                        http://bayimg.com/PAeAaAaDl

                        http://bayimg.com/PAEabAadl

========================INFO @ NET ==============================================

              http://www.rottentomatoes.com/m/condemned/

              http://www.imdb.com/title/tt0443473/


==================== <<<<<< WHAT'S NEXT >>>>>>>> ================================

                          " REDLINE "
  
                           695 MB

                http://www.imdb.com/title/tt0780595/

============================ HAUNTING SUMMER ===================================

                THE PLACE WHERE MOVIES LIVES

========================FACEBOOK CONTATCT========================================

           SEARCH FOR " RAPPIN ASSASIN" ON FACEBOOK 
===================================================================================
            